<svg xmlns="http://www.w3.org/2000/svg" xmlns:xlink="http://www.w3.org/1999/xlink" width="28.398" height="27.198" viewBox="0 0 28.398 27.198">
  <defs>
    <clipPath id="clip-path">
      <rect id="Rectangle_29" data-name="Rectangle 29" width="28.398" height="27.198" fill="#501dff"/>
    </clipPath>
  </defs>
  <g id="icon_5" transform="translate(-1335.266 -981.802)">
    <g id="Group_73" data-name="Group 73" transform="translate(1335.266 981.802)">
      <g id="Group_68" data-name="Group 68" transform="translate(0 0)" clip-path="url(#clip-path)">
        <path id="Path_50" data-name="Path 50" d="M26.337,28.914a3.052,3.052,0,0,1-1.4-.381L18.78,25.3l-3.749,1.973a1.057,1.057,0,0,1-.984-1.871l4.241-2.231a1.063,1.063,0,0,1,.984,0l6.641,3.493a1.4,1.4,0,0,0,.3.121,1.45,1.45,0,0,0-.023-.327l-1.268-7.395a1.053,1.053,0,0,1,.3-.935L30.6,12.894a1.478,1.478,0,0,0,.213-.253,1.468,1.468,0,0,0-.32-.08l-7.421-1.079a1.057,1.057,0,0,1-.8-.579L20.139,6.575a1.057,1.057,0,0,1,1.9-.936l1.89,3.831,6.872,1a2.393,2.393,0,0,1,2.091,1.5,2.4,2.4,0,0,1-.813,2.441L27.1,19.253,28.277,26.1a2.392,2.392,0,0,1-.774,2.449,1.958,1.958,0,0,1-1.166.366" transform="translate(-4.582 -1.716)" fill="#501dff"/>
        <path id="Path_51" data-name="Path 51" d="M6.644,27.2a1.956,1.956,0,0,1-1.165-.365,2.391,2.391,0,0,1-.776-2.45l1.174-6.846L.905,12.691a2.394,2.394,0,0,1-.814-2.441,2.392,2.392,0,0,1,2.092-1.5l6.872-1,3.074-6.229A2.394,2.394,0,0,1,14.2,0h0a2.394,2.394,0,0,1,2.07,1.526,1.057,1.057,0,1,1-1.9.936,1.438,1.438,0,0,0-.175-.281,1.427,1.427,0,0,0-.174.279L10.705,9.187a1.055,1.055,0,0,1-.8.579L2.488,10.845a1.438,1.438,0,0,0-.321.08,1.458,1.458,0,0,0,.213.253l5.37,5.234a1.056,1.056,0,0,1,.3.935L6.786,24.74a1.383,1.383,0,0,0-.023.327,1.406,1.406,0,0,0,.305-.122,1.056,1.056,0,1,1,.98,1.872,3.051,3.051,0,0,1-1.4.381" transform="translate(0 0)" fill="#501dff"/>
      </g>
    </g>
    <path id="Path_52" data-name="Path 52" d="M1349.465,982.635l-4.557,7.923-8.3,1.311-.432,1.022,6.21,6.236-1.316,9.145,8.545-4.306,8.352,4.621-1.237-9.785,6.363-6.532-9.5-1.712-3.533-7.721Z" fill="#501dff"/>
  </g>
</svg>
