<svg xmlns="http://www.w3.org/2000/svg" xmlns:xlink="http://www.w3.org/1999/xlink" width="39.721" height="48.027" viewBox="0 0 39.721 48.027">
  <defs>
    <clipPath id="clip-path">
      <rect id="Rectangle_27" data-name="Rectangle 27" width="39.721" height="48.027" transform="translate(0 0)" fill="#501dff"/>
    </clipPath>
  </defs>
  <g id="icon_4" transform="translate(0 0)">
    <g id="Group_57" data-name="Group 57" clip-path="url(#clip-path)">
      <path id="Path_40" data-name="Path 40" d="M18.417,26.671a1.6,1.6,0,0,0,.8,2.991A1.583,1.583,0,0,0,20,29.45c3.628-2.072,8.583-5.563,9.744-11.934a11.755,11.755,0,0,0-2.56-9.1,9.356,9.356,0,0,0-7.4-3.432,9.087,9.087,0,0,0-7.819,4.051,11.34,11.34,0,0,0-.858,10.528,1.6,1.6,0,0,0,2.958-1.227,8.213,8.213,0,0,1,.562-7.523,5.879,5.879,0,0,1,5.157-2.628,6.162,6.162,0,0,1,4.946,2.283,8.634,8.634,0,0,1,1.87,6.475c-.7,3.848-3.3,6.94-8.183,9.729" fill="#501dff"/>
      <path id="Path_41" data-name="Path 41" d="M38.442,33.137c-1.718-4.485-9.07-7.305-9.9-7.612a1.6,1.6,0,0,0-2.007.833c-.043.093-3.715,8.056-6.655,12.824-2.94-4.768-6.61-12.731-6.653-12.823a1.6,1.6,0,0,0-2.008-.834c-.833.307-8.187,3.127-9.906,7.612a19.95,19.95,0,0,0-.972,7.828c.008.465.017.929.017,1.388a1.6,1.6,0,0,0,3.2,0c0-.48-.009-.96-.017-1.446A16.877,16.877,0,0,1,4.3,34.283c.764-1.993,4.075-4.024,6.667-5.194,1.466,3.094,5.067,10.482,7.623,13.931.015.02.034.035.05.055a1.313,1.313,0,0,0,.107.117,1.5,1.5,0,0,0,.126.115c.018.015.032.032.051.046s.044.025.066.039c.049.033.1.062.15.09s.088.043.133.061.1.037.15.053.1.026.15.036a1.464,1.464,0,0,0,.15.023c.052.005.1.007.154.007s.1,0,.154-.007.1-.013.151-.023.1-.021.149-.036.1-.033.15-.053.089-.039.133-.061.1-.057.15-.09c.021-.014.045-.023.066-.039s.032-.031.05-.046a1.362,1.362,0,0,0,.126-.115,1.177,1.177,0,0,0,.107-.117c.017-.02.035-.035.05-.055,2.556-3.449,6.159-10.837,7.625-13.931,2.591,1.17,5.9,3.2,6.665,5.194.644,1.68,1,5.238,1.055,10.543H1.6a1.6,1.6,0,0,0,0,3.2H38.12a1.6,1.6,0,0,0,1.6-1.6c0-4.272-.132-10.3-1.279-13.29" fill="#501dff"/>
      <path id="Path_42" data-name="Path 42" d="M6.29,20.832A5.994,5.994,0,0,0,8.9,24.248a6.206,6.206,0,0,0,3.2.814,12.715,12.715,0,0,0,4.741-1.109,2.139,2.139,0,1,0-1.228-2.945c-2.249.93-4,1.109-5.073.49a3.227,3.227,0,0,1-1.354-2.271A1.6,1.6,0,0,0,7.6,17.747a2.545,2.545,0,0,1-1.965-.714,2.482,2.482,0,0,1-.588-1.691,2.972,2.972,0,0,1,2.91-3.1A1.609,1.609,0,0,0,9.52,10.969,9.995,9.995,0,0,1,19.488,3.2c8.651,0,10.479,7.182,10.552,7.48A1.6,1.6,0,0,0,31.6,11.922a3.21,3.21,0,0,1,3.2,3.311,2.557,2.557,0,0,1-.622,1.76,2.761,2.761,0,0,1-2.113.754,1.6,1.6,0,1,0,0,3.2,5.847,5.847,0,0,0,4.455-1.772A5.738,5.738,0,0,0,38,15.233a6.445,6.445,0,0,0-5.18-6.4C31.524,5.261,27.572,0,19.488,0A13.091,13.091,0,0,0,6.694,9.163a6.222,6.222,0,0,0-4.852,6.179A5.675,5.675,0,0,0,3.27,19.2a5.359,5.359,0,0,0,3.02,1.635" fill="#501dff"/>
    </g>
  </g>
</svg>
