<svg xmlns="http://www.w3.org/2000/svg" xmlns:xlink="http://www.w3.org/1999/xlink" width="48.601" height="40.844" viewBox="0 0 48.601 40.844">
  <defs>
    <clipPath id="clip-path">
      <rect id="Rectangle_25" data-name="Rectangle 25" width="48.601" height="40.844" transform="translate(0 0)" fill="#501dff"/>
    </clipPath>
  </defs>
  <g id="icon_1" transform="translate(0 0)">
    <g id="Group_53" data-name="Group 53" clip-path="url(#clip-path)">
      <path id="Path_35" data-name="Path 35" d="M45.52,14.815C43.484,12.2,36.782,3.6,36.027,2.841,33.893.71,32.465,0,28.214,0H6.475A6.126,6.126,0,0,0,.014,6.2C.014,8.131,0,29.729,0,29.729l3.2,0s.013-21.6.013-23.53a2.971,2.971,0,0,1,3.26-3H28.214c3.489,0,4.07.426,5.543,1.9.577.6,5.972,7.487,9.269,11.723A11.261,11.261,0,0,1,45.4,23.1V29.73a1.6,1.6,0,1,0,3.2,0V23.1a14.352,14.352,0,0,0-3.081-8.29" fill="#501dff"/>
      <path id="Path_36" data-name="Path 36" d="M47,32.37H43.751a6.865,6.865,0,0,0-13.355,0H17.536a6.865,6.865,0,0,0-13.354,0H1.6a1.6,1.6,0,0,0,0,3.2H4.182a6.864,6.864,0,0,0,13.354,0H30.4a6.865,6.865,0,0,0,13.355,0H47a1.6,1.6,0,0,0,0-3.2M10.86,37.643a3.672,3.672,0,1,1,3.671-3.673,3.677,3.677,0,0,1-3.671,3.673m26.212,0A3.672,3.672,0,1,1,40.718,33.7a1.369,1.369,0,0,0,0,.541,3.666,3.666,0,0,1-3.646,3.4" fill="#501dff"/>
      <path id="Path_37" data-name="Path 37" d="M28.121,4.247a1.6,1.6,0,0,0-1.6,1.6V20.437a1.6,1.6,0,0,0,1.6,1.6h13.8a1.6,1.6,0,1,0,0-3.2H29.722V5.848a1.6,1.6,0,0,0-1.6-1.6" fill="#501dff"/>
    </g>
  </g>
</svg>
