<svg width="186" height="134" viewBox="0 0 186 134" fill="none" xmlns="http://www.w3.org/2000/svg">
<path d="M1.50098 131.969C2.6293 118.967 11.4755 105.619 25.9539 104.594C37.0359 103.81 48.475 110.243 56.7858 116.604C58.1574 117.654 69.1585 126.662 62.0103 128.78C48.9392 132.651 39.2093 122.608 36.0199 110.849C31.281 93.378 37.7116 76.1566 50.733 63.9174C66.8863 48.7344 94.5731 35.0422 116.2 45.9369C126.284 51.0171 131.207 57.9121 134.035 68.5668C136.286 77.049 137.477 87.6648 130.321 94.5756C118.545 105.949 104.533 94.7704 98.3952 83.5062C85.9583 60.6812 95.7936 28.9346 118.738 16.9687C138.863 6.47284 162.094 2.90382 184.485 1.51358" stroke="#2CACE2" stroke-width="3" stroke-linecap="round"/>
</svg>
