<svg xmlns="http://www.w3.org/2000/svg" xmlns:xlink="http://www.w3.org/1999/xlink" width="37.973" height="43.418" viewBox="0 0 37.973 43.418">
  <defs>
    <clipPath id="clip-path">
      <rect id="Rectangle_26" data-name="Rectangle 26" width="37.973" height="43.418" transform="translate(0 0)" fill="#501dff"/>
    </clipPath>
  </defs>
  <g id="icon_3" transform="translate(0 0)">
    <g id="Group_55" data-name="Group 55" clip-path="url(#clip-path)">
      <path id="Path_38" data-name="Path 38" d="M1.6,12.027a1.6,1.6,0,0,0-1.6,1.6V41.817a1.6,1.6,0,0,0,3.2,0V13.628a1.6,1.6,0,0,0-1.6-1.6" fill="#501dff"/>
      <path id="Path_39" data-name="Path 39" d="M37.845,23.935a4.575,4.575,0,0,0-1.312-3.219,4.946,4.946,0,0,0,1.44-3.5c0-2.546-1.933-5.122-5.627-5.122H23.163c1.082-2.587,2.41-6.676,1.369-9.336A4.089,4.089,0,0,0,22.03.319c-3.883-1.376-6.558,1.951-9.139,5.172C10.87,8.01,8.582,10.865,5.463,12.222A1.6,1.6,0,1,0,6.74,15.158c3.845-1.673,6.508-4.995,8.648-7.665,2.66-3.317,3.993-4.715,5.572-4.156a.893.893,0,0,1,.591.582c.643,1.64-.618,5.485-1.89,8.17H17.946a1.6,1.6,0,1,0,0,3.2h14.4c1.79,0,2.425,1.035,2.425,1.921a1.771,1.771,0,0,1-.526,1.274,2.648,2.648,0,0,1-1.9.639,1.6,1.6,0,1,0,0,3.2,2.7,2.7,0,0,1,1.853.56,1.4,1.4,0,0,1,.444,1.05c0,.892-.783,2.218-2.938,2.218a1.6,1.6,0,0,0,0,3.2,2.827,2.827,0,0,1,1.918.572,1.378,1.378,0,0,1,.452,1.044c0,.89-.8,2.214-3.01,2.214a1.6,1.6,0,1,0,0,3.2,2.4,2.4,0,0,1,1.694.532,1.451,1.451,0,0,1,.425,1.066c0,.9-.735,2.234-2.761,2.234H6.1a1.6,1.6,0,1,0,0,3.2H30.423a5.583,5.583,0,0,0,5.963-5.435A4.643,4.643,0,0,0,35.306,35a5.237,5.237,0,0,0,1.971-4.026,4.549,4.549,0,0,0-1.243-3.127,5.261,5.261,0,0,0,1.811-3.908" fill="#501dff"/>
    </g>
  </g>
</svg>
