<svg id="icon_2" xmlns="http://www.w3.org/2000/svg" xmlns:xlink="http://www.w3.org/1999/xlink" width="36.988" height="42.104" viewBox="0 0 36.988 42.104">
  <defs>
    <clipPath id="clip-path">
      <rect id="Rectangle_28" data-name="Rectangle 28" width="36.988" height="42.104" transform="translate(0 0)" fill="#501dff"/>
    </clipPath>
  </defs>
  <g id="Group_59" data-name="Group 59" clip-path="url(#clip-path)">
    <path id="Path_43" data-name="Path 43" d="M35.388,42.1H1.6A1.6,1.6,0,0,1,0,40.5V1.6A1.6,1.6,0,0,1,1.6,0H35.388a1.6,1.6,0,0,1,1.6,1.6V40.5a1.6,1.6,0,0,1-1.6,1.6M3.2,38.9H33.787V3.2H3.2Z" fill="#501dff"/>
    <path id="Path_44" data-name="Path 44" d="M21.082,12.975H5.782a1.6,1.6,0,0,1,0-3.2h15.3a1.6,1.6,0,1,1,0,3.2" fill="#501dff"/>
    <path id="Path_45" data-name="Path 45" d="M21.082,22.783H5.782a1.6,1.6,0,0,1,0-3.2h15.3a1.6,1.6,0,1,1,0,3.2" fill="#501dff"/>
    <path id="Path_46" data-name="Path 46" d="M21.082,32.593H5.782a1.6,1.6,0,0,1,0-3.2h15.3a1.6,1.6,0,1,1,0,3.2" fill="#501dff"/>
    <path id="Path_47" data-name="Path 47" d="M27.015,14.92a1.6,1.6,0,0,1-1.133-.469l-2.044-2.044A1.6,1.6,0,0,1,26.1,10.144l.912.912,3.34-3.341a1.6,1.6,0,0,1,2.264,2.264l-4.472,4.472a1.6,1.6,0,0,1-1.132.469" fill="#501dff"/>
    <path id="Path_48" data-name="Path 48" d="M27.015,24.9a1.6,1.6,0,0,1-1.133-.469l-2.044-2.044A1.6,1.6,0,0,1,26.1,20.125l.912.912,3.34-3.341a1.6,1.6,0,0,1,2.264,2.264l-4.472,4.472a1.6,1.6,0,0,1-1.132.469" fill="#501dff"/>
    <path id="Path_49" data-name="Path 49" d="M27.015,34.882a1.6,1.6,0,0,1-1.133-.469l-2.044-2.044A1.6,1.6,0,0,1,26.1,30.106l.912.912,3.34-3.341a1.6,1.6,0,0,1,2.264,2.264l-4.472,4.472a1.6,1.6,0,0,1-1.132.469" fill="#501dff"/>
  </g>
</svg>
